<?xml version="1.0" standalone="no"?><!DOCTYPE svg PUBLIC "-//W3C//DTD SVG 1.1//EN" "http://www.w3.org/Graphics/SVG/1.1/DTD/svg11.dtd"><svg t="1625487806724" class="icon" viewBox="0 0 1024 1024" version="1.1" xmlns="http://www.w3.org/2000/svg" p-id="7863" xmlns:xlink="http://www.w3.org/1999/xlink" width="128" height="128"><defs><style type="text/css"></style></defs><path d="M916.1 392.9c26.6-9.9 44.5-35 44.5-63.3V191.7c0-37.6-30.4-68-68-68H132.2c-37.6 0-68 30.4-68 68v139.4c0 28.3 17.8 53.3 44.3 63.3 48.2 18.2 82.5 64.8 82.5 119.4S156.7 615 108.5 633.2c-26.5 10-44.3 35-44.3 63.3v131.2c0 37.6 30.4 68 68 68h760.3c37.6 0 68-30.4 68-68V695.5c0-28.4-17.9-53.4-44.5-63.3-48.5-18.2-83-64.9-83-119.7s34.5-101.5 83.1-119.6zM703 608c0 17.8-14.4 32.2-32.2 32.2H351.9c-17.8 0-32.2-14.4-32.2-32.2 0-17.8 14.4-32.2 32.2-32.2h318.9c17.7 0 32.2 14.4 32.2 32.2z m0.3-192c0 17.8-14.4 32.2-32.2 32.2H352.3c-17.8 0-32.2-14.4-32.2-32.2 0-17.8 14.4-32.2 32.2-32.2h318.9c17.7 0 32.1 14.4 32.1 32.2z" p-id="7864"></path></svg>