<svg t="1625489069755" class="icon" viewBox="0 0 1024 1024" version="1.1" xmlns="http://www.w3.org/2000/svg" p-id="20001" width="128" height="128"><path d="M246.6 807.1c0 22.6-16.2 40.9-36.2 40.9-20 0-36.2-18.3-36.2-40.9V175.2c0-22.6 16.2-40.9 36.2-40.9 20 0 36.2 18.3 36.2 40.9v631.9z m0 0M415.4 699.7c0 23.9-19.3 43.2-43.2 43.2S329 723.5 329 699.7V582.3c0-23.9 19.3-43.2 43.2-43.2s43.2 19.3 43.2 43.2v117.4z m0 0M597.6 699.7c0 23.9-19.3 43.2-43.2 43.2-23.9 0-43.2-19.3-43.2-43.2v-397c0-23.9 19.3-43.2 43.2-43.2 23.9 0 43.2 19.3 43.2 43.2v397z m0 0M787.3 699.7c0 23.9-19.3 43.2-43.2 43.2-23.9 0-43.2-19.3-43.2-43.2V524.9c0-23.9 19.3-43.2 43.2-43.2 23.9 0 43.2 19.3 43.2 43.2v174.8z m0 0" p-id="20002"></path><path d="M220.2 848c-22.6 0-40.9-15.5-40.9-34.7 0-19.1 18.3-34.7 40.9-34.7h611.9c22.6 0 40.9 15.5 40.9 34.7 0 19.1-18.3 34.7-40.9 34.7H220.2z m0 0" p-id="20003"></path></svg>
