<?xml version="1.0" standalone="no"?><!DOCTYPE svg PUBLIC "-//W3C//DTD SVG 1.1//EN" "http://www.w3.org/Graphics/SVG/1.1/DTD/svg11.dtd"><svg t="1625487787789" class="icon" viewBox="0 0 1024 1024" version="1.1" xmlns="http://www.w3.org/2000/svg" p-id="6994" xmlns:xlink="http://www.w3.org/1999/xlink" width="128" height="128"><defs><style type="text/css"></style></defs><path d="M231.488 164a32 32 0 0 1 32-32h488.8a32 32 0 1 1 0 64h-488.8a32 32 0 0 1-32-32z m-50.56 96.464a32 32 0 0 1 32-32h594.16a32 32 0 1 1 0 64H212.896a32 32 0 0 1-32-32zM84 435.184c0-56.352 45.76-101.872 102.048-101.872h647.904c56.288 0 102.048 45.52 102.048 101.856v350.976c0 56.32-45.76 101.856-102.048 101.856H186.048c-56.288 0-102.048-45.52-102.048-101.856V435.168z m102.048-37.872a37.952 37.952 0 0 0-38.048 37.856v350.976a37.952 37.952 0 0 0 38.048 37.856h647.904a37.952 37.952 0 0 0 38.048-37.856V435.168a37.952 37.952 0 0 0-38.048-37.856H186.048z m185.376 56.576a32 32 0 0 1 43.84-11.28l98.08 57.872 95.312-57.696a32 32 0 1 1 33.136 54.752l-96.256 58.272v9.12h114.064a32 32 0 1 1 0 64h-114.064v26.016l114.288 0.832a32 32 0 0 1-0.464 64l-113.824-0.832v40.592a32 32 0 1 1-64 0V718.72H364.64a32 32 0 0 1 0-64h116.912v-25.792H364.64a32 32 0 1 1 0-64h116.912v-8.896l-98.816-58.32a32 32 0 0 1-11.296-43.824z" p-id="6995"></path></svg>